<?xml version="1.0" encoding="UTF-8" standalone="no"?>
<!DOCTYPE svg PUBLIC "-//W3C//DTD SVG 1.1//EN"
 "http://www.w3.org/Graphics/SVG/1.1/DTD/svg11.dtd">
<!-- Generated by graphviz version 2.40.1 (20161225.0304)
 -->
<!-- Title: dependencies Pages: 1 -->
<svg width="504pt" height="360pt"
 viewBox="0.00 0.00 504.00 360.00" xmlns="http://www.w3.org/2000/svg" xmlns:xlink="http://www.w3.org/1999/xlink">
<g id="graph0" class="graph" transform="scale(1 1) rotate(0) translate(4 356)">
<title>dependencies</title>
<polygon fill="#ffffff" stroke="transparent" points="-4,4 -4,-356 500,-356 500,4 -4,4"/>
<text text-anchor="start" x="227.0091" y="-42.4" font-family="sans-serif" font-weight="bold" font-size="14.00" fill="#000000">Legend</text>
<polygon fill="#ffffb3" stroke="transparent" points="14,-10 14,-30 34,-30 34,-10 14,-10"/>
<text text-anchor="start" x="37.629" y="-15.4" font-family="sans-serif" font-size="14.00" fill="#000000"> &#160;Declarations</text>
<polygon fill="#8dd3c7" stroke="transparent" points="127,-10 127,-30 147,-30 147,-10 127,-10"/>
<text text-anchor="start" x="150.7251" y="-15.4" font-family="sans-serif" font-size="14.00" fill="#000000"> &#160;Module</text>
<polygon fill="#80b1d3" stroke="transparent" points="213,-10 213,-30 233,-30 233,-10 213,-10"/>
<text text-anchor="start" x="236.7812" y="-15.4" font-family="sans-serif" font-size="14.00" fill="#000000"> &#160;Bootstrap</text>
<polygon fill="#fdb462" stroke="transparent" points="310,-10 310,-30 330,-30 330,-10 310,-10"/>
<text text-anchor="start" x="333.6732" y="-15.4" font-family="sans-serif" font-size="14.00" fill="#000000"> &#160;Providers</text>
<polygon fill="#fb8072" stroke="transparent" points="406,-10 406,-30 426,-30 426,-10 406,-10"/>
<text text-anchor="start" x="429.7258" y="-15.4" font-family="sans-serif" font-size="14.00" fill="#000000"> &#160;Exports</text>
<g id="clust1" class="cluster">
<title>cluster_AppModule</title>
<polygon fill="none" stroke="#000000" stroke-dasharray="1,5" points="16,-146 16,-344 480,-344 480,-146 16,-146"/>
</g>
<g id="clust2" class="cluster">
<title>cluster_AppModule_declarations</title>
<polygon fill="none" stroke="#000000" points="176,-154 176,-206 472,-206 472,-154 176,-154"/>
</g>
<g id="clust5" class="cluster">
<title>cluster_AppModule_imports</title>
<polygon fill="none" stroke="#000000" points="24,-154 24,-206 168,-206 168,-154 24,-154"/>
</g>
<g id="clust7" class="cluster">
<title>cluster_AppModule_bootstrap</title>
<polygon fill="none" stroke="#000000" points="200,-284 200,-336 324,-336 324,-284 200,-284"/>
</g>
<g id="clust9" class="cluster">
<title>cluster_SocialLoginModule</title>
<polygon fill="none" stroke="#000000" stroke-dasharray="1,5" points="21,-70 21,-138 171,-138 171,-70 21,-70"/>
</g>
<g id="clust14" class="cluster">
<title>cluster_SocialLoginModule_providers</title>
<polygon fill="none" stroke="#000000" points="29,-78 29,-130 163,-130 163,-78 29,-78"/>
</g>
<!-- AppComponent -->
<g id="node1" class="node">
<title>AppComponent</title>
<polygon fill="#ffffb3" stroke="#000000" points="463.9399,-198 358.0601,-198 358.0601,-162 463.9399,-162 463.9399,-198"/>
<text text-anchor="middle" x="411" y="-175.8" font-family="Times,serif" font-size="14.00" fill="#000000">AppComponent</text>
</g>
<!-- AppModule -->
<g id="node3" class="node">
<title>AppModule</title>
<polygon fill="#8dd3c7" stroke="#000000" points="303.6571,-263 300.6571,-267 279.6571,-267 276.6571,-263 220.3429,-263 220.3429,-227 303.6571,-227 303.6571,-263"/>
<text text-anchor="middle" x="262" y="-240.8" font-family="Times,serif" font-size="14.00" fill="#000000">AppModule</text>
</g>
<!-- AppComponent&#45;&gt;AppModule -->
<g id="edge1" class="edge">
<title>AppComponent&#45;&gt;AppModule</title>
<path fill="none" stroke="#000000" d="M411,-198.1061C411,-217.3391 411,-245 411,-245 411,-245 313.9013,-245 313.9013,-245"/>
<polygon fill="#000000" stroke="#000000" points="313.9014,-241.5001 303.9013,-245 313.9013,-248.5001 313.9014,-241.5001"/>
</g>
<!-- LoginWidgetComponent -->
<g id="node2" class="node">
<title>LoginWidgetComponent</title>
<polygon fill="#ffffb3" stroke="#000000" points="339.986,-198 184.014,-198 184.014,-162 339.986,-162 339.986,-198"/>
<text text-anchor="middle" x="262" y="-175.8" font-family="Times,serif" font-size="14.00" fill="#000000">LoginWidgetComponent</text>
</g>
<!-- LoginWidgetComponent&#45;&gt;AppModule -->
<g id="edge2" class="edge">
<title>LoginWidgetComponent&#45;&gt;AppModule</title>
<path fill="none" stroke="#000000" d="M262,-198.1061C262,-198.1061 262,-216.991 262,-216.991"/>
<polygon fill="#000000" stroke="#000000" points="258.5001,-216.9909 262,-226.991 265.5001,-216.991 258.5001,-216.9909"/>
</g>
<!-- AppComponent  -->
<g id="node5" class="node">
<title>AppComponent </title>
<polygon fill="#80b1d3" stroke="#000000" points="316.439,-328 207.561,-328 207.561,-292 316.439,-292 316.439,-328"/>
<text text-anchor="middle" x="262" y="-305.8" font-family="Times,serif" font-size="14.00" fill="#000000">AppComponent </text>
</g>
<!-- AppModule&#45;&gt;AppComponent  -->
<g id="edge4" class="edge">
<title>AppModule&#45;&gt;AppComponent </title>
<path fill="none" stroke="#000000" stroke-dasharray="1,5" d="M262,-263.1061C262,-263.1061 262,-281.991 262,-281.991"/>
<polygon fill="#000000" stroke="#000000" points="258.5001,-281.9909 262,-291.991 265.5001,-281.991 258.5001,-281.9909"/>
</g>
<!-- SocialLoginModule -->
<g id="node4" class="node">
<title>SocialLoginModule</title>
<polygon fill="#8dd3c7" stroke="#000000" points="159.986,-198 156.986,-202 135.986,-202 132.986,-198 32.014,-198 32.014,-162 159.986,-162 159.986,-198"/>
<text text-anchor="middle" x="96" y="-175.8" font-family="Times,serif" font-size="14.00" fill="#000000">SocialLoginModule</text>
</g>
<!-- SocialLoginModule&#45;&gt;AppModule -->
<g id="edge3" class="edge">
<title>SocialLoginModule&#45;&gt;AppModule</title>
<path fill="none" stroke="#000000" d="M96,-198.1061C96,-217.3391 96,-245 96,-245 96,-245 210.1112,-245 210.1112,-245"/>
<polygon fill="#000000" stroke="#000000" points="210.1112,-248.5001 220.1112,-245 210.1112,-241.5001 210.1112,-248.5001"/>
</g>
<!-- AuthService -->
<g id="node6" class="node">
<title>AuthService</title>
<ellipse fill="#fdb462" stroke="#000000" cx="96" cy="-104" rx="59.1083" ry="18"/>
<text text-anchor="middle" x="96" y="-99.8" font-family="Times,serif" font-size="14.00" fill="#000000">AuthService</text>
</g>
<!-- AuthService&#45;&gt;SocialLoginModule -->
<g id="edge5" class="edge">
<title>AuthService&#45;&gt;SocialLoginModule</title>
<path fill="none" stroke="#000000" d="M115.7679,-121.2456C115.7679,-121.2456 115.7679,-151.7629 115.7679,-151.7629"/>
<polygon fill="#000000" stroke="#000000" points="112.268,-151.7628 115.7679,-161.7629 119.268,-151.7629 112.268,-151.7628"/>
</g>
<!-- AuthService&#45;&gt;SocialLoginModule -->
<g id="edge6" class="edge">
<title>AuthService&#45;&gt;SocialLoginModule</title>
<path fill="none" stroke="#000000" d="M76.2321,-121.2456C76.2321,-121.2456 76.2321,-151.7629 76.2321,-151.7629"/>
<polygon fill="#000000" stroke="#000000" points="72.7322,-151.7628 76.2321,-161.7629 79.7322,-151.7629 72.7322,-151.7628"/>
</g>
</g>
</svg>
